# xmcd
#
# Track frame offsets:
#	150
#	19026
#	31342
#	51477
#	78540
#	83104
#	94834
# Disc length: 1356 seconds
# Revision: 4
# Processed by: cddbd v1.5PL3 Copyright (c) Steve Scherf et al.
#
# Submitted via: libkcddb 0.10
#
DISCID=4f054a07
DTITLE=Robin Post - Seasons of Change E.P.
DYEAR=2000
DGENRE=
TTITLE0=Move Once More
TTITLE1=Just A Nerd
TTITLE2=Rebirth
TTITLE3=Song of Anticipation
TTITLE4=Whales
TTITLE5=Hold onto the Son
TTITLE6=India
EXTD=
EXTT0=
EXTT1=
EXTT2=
EXTT3=
EXTT4=
EXTT5=
EXTT6=
PLAYORDER=
